<?xml version="1.0" encoding="UTF-8"?>
<svg id="Layer_1" xmlns="http://www.w3.org/2000/svg" version="1.1" viewBox="0 0 24 24">
  <!-- Generator: Adobe Illustrator 30.4.0, SVG Export Plug-In . SVG Version: 2.1.4 Build 226)  -->
  <defs>
    <style>
      .st0 {
        fill: none;
      }

      .st1 {
        fill: #111;
      }
    </style>
  </defs>
  <path class="st0" d="M0,0h24v24H0V0Z"/>
  <path class="st1" d="M11,18h2v-2h-2v2ZM12,2C6.48,2,2,6.48,2,12s4.48,10,10,10,10-4.48,10-10S17.52,2,12,2ZM12,20c-4.41,0-8-3.59-8-8S7.59,4,12,4s8,3.59,8,8-3.59,8-8,8ZM12,6c-2.21,0-4,1.79-4,4h2c0-1.1.9-2,2-2s2,.9,2,2c0,2-3,1.75-3,5h2c0-2.25,3-2.5,3-5,0-2.21-1.79-4-4-4Z"/>
</svg>